<svg width="32" height="32" viewBox="0 0 32 32" fill="none" xmlns="http://www.w3.org/2000/svg">
<path d="M6 26H26V24H6V26ZM6 22H26V20H6V22ZM6 18H26V16H6V18ZM6 14H26V12H6V14ZM6 10H26V8H6V10ZM6 6H26V4H6V6Z" fill="#16A34A"/>
<circle cx="5" cy="5" r="2" fill="#16A34A"/>
<circle cx="5" cy="11" r="2" fill="#16A34A"/>
<circle cx="5" cy="17" r="2" fill="#16A34A"/>
<circle cx="5" cy="23" r="2" fill="#16A34A"/>
<path d="M28 2H4C2.9 2 2 2.9 2 4V28C2 29.1 2.9 30 4 30H28C29.1 30 30 29.1 30 28V4C30 2.9 29.1 2 28 2ZM28 28H4V4H28V28Z" fill="#16A34A"/>
<path d="M12 18L16 14L20 18L24 12" stroke="#16A34A" stroke-width="2" stroke-linecap="round" stroke-linejoin="round"/>
<circle cx="12" cy="18" r="2" fill="#16A34A"/>
<circle cx="16" cy="14" r="2" fill="#16A34A"/>
<circle cx="20" cy="18" r="2" fill="#16A34A"/>
<circle cx="24" cy="12" r="2" fill="#16A34A"/>
</svg>
